HIERARCHY
ROOT pelvis
{
  OFFSET 0 100 0
  CHANNELS 6 Xposition Yposition Zposition Zrotation Xrotation Yrotation
  JOINT pelvis_right_femur
  {
    OFFSET -10.78128 -3.44521 -0.5502486
    CHANNELS 3 Zrotation Xrotation Yrotation
    JOINT right_femur_tibia
    {
      OFFSET -0.8047443 -44.0398 -0.1307829
      CHANNELS 3 Zrotation Xrotation Yrotation
      JOINT right_tibia_foot
      {
        OFFSET 3.006224 -47.83518 -5
        CHANNELS 3 Zrotation Xrotation Yrotation
        End Site
        {
          OFFSET 0 -5 15
        }
      }
    }
  }
  JOINT pelvis_left_femur
  {
    OFFSET 10.78128 -3.44521 -0.5502486
    CHANNELS 3 Zrotation Xrotation Yrotation
    JOINT left_femur_tibia
    {
      OFFSET 0.8047443 -44.0398 -0.1307829
      CHANNELS 3 Zrotation Xrotation Yrotation
      JOINT left_tibia_foot
      {
        OFFSET -4.370144 -48.10324 -4.275266
        CHANNELS 3 Zrotation Xrotation Yrotation
        End Site
        {
          OFFSET 0 -5 15
        }
      }
    }
  }
  JOINT pelvis_spine1
  {
    OFFSET 0 6.468898 -3.129235
    CHANNELS 3 Zrotation Xrotation Yrotation
    JOINT spine1
    {
      OFFSET 0 23.15396 4.99043
      CHANNELS 3 Zrotation Xrotation Yrotation
      JOINT spine2
      {
        OFFSET 0 20.79997 -5.064912
        CHANNELS 3 Zrotation Xrotation Yrotation
        JOINT neck
        {
          OFFSET 0 14.38658 9.616178
          CHANNELS 3 Zrotation Xrotation Yrotation
          End Site
          {
            OFFSET 0 20 0
          }
        }
      }
      JOINT right_manubrium
      {
        OFFSET -5.722621 16.35077 3.967754
        CHANNELS 3 Zrotation Xrotation Yrotation
        JOINT right_clavicle
        {
          OFFSET -13.16364 1.694482 -4.693211
          CHANNELS 3 Zrotation Xrotation Yrotation
          JOINT right_humerus
          {
            OFFSET -28.5034 -0.3100689 -2.792744
            CHANNELS 3 Zrotation Xrotation Yrotation
            JOINT right_radius
            {
              OFFSET -25.15693 0.02248979 -1.271978
              CHANNELS 3 Zrotation Xrotation Yrotation
              End Site
              {
                OFFSET -15 0 0
              }
            }
          }
        }
      }
      JOINT left_manubrium
      {
        OFFSET 5.722621 16.35077 3.967754
        CHANNELS 3 Zrotation Xrotation Yrotation
        JOINT left_clavicle
        {
          OFFSET 13.16364 1.694482 -4.693211
          CHANNELS 3 Zrotation Xrotation Yrotation
          JOINT left_humerus
          {
            OFFSET 29.39168 -1.063119 -2.237045
            CHANNELS 3 Zrotation Xrotation Yrotation
            JOINT left_radius
            {
              OFFSET 24.59957 -0.9528479 0.9047498
              CHANNELS 3 Zrotation Xrotation Yrotation
              End Site
              {
                OFFSET 15 -0 -0
              }
            }
          }
        }
      }
    }
  }
}
MOTION
Frames: 13
Frame Time: 0.0416666666667
0 103.5113 0 0.7813855 -0.6148878 -0.0490056 4.172422 -18.48264 10.22421 -0 38.97368 -0 -5.864243 -15.02217 -3.394161 -7.242085 9.63936 -23.75626 -0 6.343481 -0 10.32981 -16.86532 28.12309 -3.872551 -3.182647 4.901598 2.550963 9.892134 -7.570721 1.500401 21.79036 6.935782 3.49778 -24.81853 9.497463 6.869454 -20.19844 11.85195 85.10651 36.42882 -18.45658 -0 0 16.98269 -6.471468 8.065259 4.399285 5.692221 -19.30851 -1.790087 -94.74429 26.83567 23.37295 0 0 -15.25521 7.959228 16.53518 5.290715
0.3717125 103.6516 1.31924 0.8141852 -0.9383459 -0.08532332 4.000748 -18.11318 9.980463 -0 39.47264 -0 -6.031002 -14.59376 -3.40016 -7.237856 9.635101 -23.65697 -0 6.534864 -0 10.04628 -16.90999 27.998 -3.849262 -3.106079 4.836461 2.45699 9.929157 -7.48915 1.516524 21.92905 6.913083 3.482337 -24.69159 9.463104 6.693325 -20.1894 11.81613 85.28289 36.01179 -18.40992 -0 0 16.85815 -6.719643 7.969341 4.499349 5.637704 -19.32022 -1.929188 -94.73291 26.98217 23.3129 0 0 -15.14157 7.719769 16.62144 5.558707
0.7041207 103.6397 2.945946 0.4489571 0.1383796 -0.113605 4.829032 -20.90597 9.671524 -0 35.31955 -0 -5.833366 -14.69799 -3.158398 -6.918912 10.69515 -23.06066 -0 5.526252 -0 9.488652 -17.90474 27.09788 -3.547436 -3.022765 4.679295 2.68363 9.550893 -7.700968 1.481249 21.58231 7.038193 3.492075 -25.09611 9.592207 6.510108 -19.85911 11.65185 85.41606 36.0422 -19.02923 -0 0 16.38708 -6.416739 7.992354 4.27241 6.102781 -19.70339 -1.619845 -94.06819 26.84999 22.24996 0 0 -16.8319 8.241521 16.33428 4.919156
0.9982916 103.4884 4.882821 0.07858781 1.143083 -0.07845365 5.608877 -23.407 9.400003 -0 31.81561 -0 -5.736224 -14.29893 -2.909255 -6.61942 11.65996 -22.43352 -0 4.847589 -0 8.720755 -18.83187 26.09283 -3.242108 -2.92619 4.4993 2.877771 9.233849 -7.908844 1.42738 21.24615 7.193644 3.534916 -25.50363 9.702614 6.35776 -19.53952 11.50941 85.62125 36.12897 -19.67643 -0 0 15.87325 -6.226695 8.071012 4.126059 6.492854 -20.08804 -1.343877 -93.56006 26.87266 21.44546 0 0 -18.38974 8.458689 16.05807 4.694159
1.239084 103.2041 7.228477 -0.3533341 1.952084 0.05516606 6.348203 -25.87227 8.821218 -0 28.37838 -0 -5.898299 -13.10571 -2.63746 -6.259761 12.81308 -21.52973 -0 4.657958 -0 7.283453 -19.91305 24.61128 -2.823549 -2.715442 4.187506 2.997375 8.910124 -8.069353 1.378693 21.00739 7.355306 3.573312 -25.86109 9.787805 5.963481 -19.12449 11.29367 86.1335 35.74226 -20.44149 -0 0 15.04168 -6.284088 8.056539 4.073869 6.85841 -20.56307 -1.175 -93.00406 27.15716 20.50534 0 0 -20.06574 8.302008 15.83149 4.926169
1.4222 102.8327 10.03319 -0.8257703 2.683157 0.2984479 7.082973 -28.15429 8.210961 -0 25.19738 -0 -6.212515 -11.5342 -2.377945 -5.892467 13.96377 -20.52139 -0 5.12987 -0 5.512014 -20.87258 22.88258 -2.35566 -2.472606 3.831263 3.093263 8.601685 -8.219614 1.330523 20.79671 7.512206 3.613548 -26.21471 9.855641 5.519834 -18.65861 11.05754 86.76673 35.26677 -21.25183 -0 0 14.06309 -6.386864 8.028512 4.049186 7.168428 -21.0418 -1.027777 -92.50045 27.56164 19.63283 0 0 -21.64605 7.958651 15.6053 5.409804
1.547499 102.4273 13.34722 -1.322557 3.275865 0.6509289 7.777329 -30.08778 7.564046 -0 22.3535 -0 -6.692253 -9.69643 -2.143927 -5.530309 15.02147 -19.40816 -0 6.558454 -0 3.461261 -21.55515 20.9316 -1.847701 -2.20076 3.448283 3.159636 8.320698 -8.345643 1.290051 20.6348 7.639291 3.642299 -26.52898 9.89377 5.033018 -18.13572 10.80257 87.50288 34.70275 -22.05126 -0 0 12.9366 -6.525037 7.981621 4.046143 7.39959 -21.49235 -0.9095252 -92.02798 28.00323 18.80427 0 0 -23.00542 7.526719 15.36475 6.013561
1.624176 102.0625 17.20129 -1.812329 3.706336 1.093915 8.396593 -31.45885 6.935863 -0 19.98063 -0 -7.304497 -7.827599 -1.947233 -5.195602 15.81496 -18.24029 -0 9.206788 -0 1.298506 -21.76582 18.87077 -1.330385 -1.92288 3.087787 3.199771 8.087567 -8.441902 1.257826 20.52353 7.718132 3.654802 -26.77507 9.889875 4.572709 -17.57212 10.54999 88.26565 34.17638 -22.76861 -0 0 11.73093 -6.657643 7.948624 4.052222 7.521466 -21.86417 -0.8105598 -91.60766 28.38365 18.07829 0 0 -23.98612 7.117696 15.09357 6.597532
1.670069 101.825 21.6027 -2.248434 3.905749 1.5876 8.871328 -32.00733 6.322228 -0 18.19105 -0 -8.021766 -6.16562 -1.799098 -4.903876 16.15139 -17.04917 -0 13.32286 -0 -0.8189944 -21.33685 16.81796 -0.8319873 -1.648769 2.798715 3.203358 7.925722 -8.489298 1.234895 20.4876 7.728364 3.643367 -26.8962 9.824559 4.179691 -16.98864 10.31773 88.99428 33.7473 -23.32479 -0 0 10.51124 -6.792888 7.952751 4.071317 7.502922 -22.11434 -0.7449911 -91.24698 28.61594 17.48647 0 0 -24.44688 6.815189 14.79277 7.043643
1.709546 101.8065 26.5234 -2.571523 3.800416 2.07156 9.121771 -31.46981 5.704527 -0 17.04713 -0 -8.798437 -4.972454 -1.710512 -4.663883 15.81746 -15.8698 -0 19.02673 -0 -2.720639 -20.1533 14.91747 -0.3842603 -1.384433 2.63598 3.15601 7.860077 -8.464678 1.219743 20.55666 7.655557 3.603584 -26.82704 9.677509 3.888125 -16.42167 10.12808 89.61901 33.45864 -23.63829 -0 0 9.366881 -6.968119 8.020711 4.11861 7.319956 -22.20884 -0.7351338 -90.95814 28.63132 17.06504 0 0 -24.28661 6.668294 14.47465 7.269747
1.766992 102.0888 31.89072 -2.719709 3.31893 2.471228 9.082128 -29.63182 5.058239 -0 16.51584 -0 -9.576878 -4.473535 -1.690982 -4.472057 14.61821 -14.72883 -0 26.2159 -0 -4.26147 -18.19855 13.31676 -0.0171018 -1.128176 2.647811 3.040895 7.913431 -8.342678 1.209656 20.76194 7.49377 3.534912 -26.5051 9.432262 3.705832 -15.92294 10.00431 90.07334 33.30357 -23.63332 -0 0 8.398119 -7.257622 8.171352 4.224219 6.966421 -22.13425 -0.8100905 -90.75112 28.38963 16.83732 0 0 -23.47886 6.67871 14.15842 7.24491
1.857671 102.7245 37.58392 -2.648267 2.421428 2.712799 8.738434 -26.40295 4.382516 -0 16.44138 -0 -10.2924 -4.786457 -1.741112 -4.307919 12.42068 -13.63859 -0 34.45772 -0 -5.34989 -15.59265 12.14789 0.245089 -0.8717996 2.862626 2.845179 8.101573 -8.103456 1.201141 21.12093 7.250139 3.443663 -25.89608 9.083753 3.609878 -15.55832 9.969082 90.30052 33.22903 -23.25236 -0 0 7.706861 -7.76089 8.410615 4.432043 6.465327 -21.90651 -0.9944379 -90.63503 27.88649 16.81448 0 0 -22.09846 6.799699 13.86137 6.998346
1.979806 103.7138 43.44335 -2.352324 1.126706 2.742246 8.147326 -21.88218 3.708697 -0 16.54974 -0 -10.8864 -5.854844 -1.84248 -4.129536 9.193533 -12.58724 -0 42.94044 -0 -5.964112 -12.60399 11.51084 0.3877066 -0.6018318 3.27508 2.565442 8.42683 -7.739876 1.191083 21.62231 6.94552 3.342722 -25.01771 8.643789 3.546392 -15.40023 10.03945 90.26413 33.14992 -22.46543 -0 0 7.381545 -8.57989 8.725096 4.794752 5.874491 -21.57309 -1.296516 -90.61667 27.15121 16.99562 0 0 -20.32084 6.953565 13.59087 6.608633
